<?xml version="1.0" encoding="utf-8"?>
<!-- Generator: Adobe Illustrator 25.0.0, SVG Export Plug-In . SVG Version: 6.00 Build 0)  -->
<svg version="1.1" id="Layer_1" xmlns="http://www.w3.org/2000/svg" xmlns:xlink="http://www.w3.org/1999/xlink" x="0px" y="0px"
	 viewBox="0 0 488 488" style="enable-background:new 0 0 488 488;" xml:space="preserve">
<style type="text/css">
	.st0{fill:#9ED6F1;}
	.st1{fill:#5EBAE7;}
	.st2{fill:#89CC86;}
	.st3{fill:#3AAA35;}
	.st4{fill:#1D1D1B;}
	.st5{fill:#FFFFFF;}
</style>
<g>
	<g id="XMLID_1017_">
		<path class="st0" d="M366,411.8h-83.9v-83.9l0,0C328.4,327.9,366,365.4,366,411.8L366,411.8z"/>
	</g>
	<g id="XMLID_600_">
		<path class="st1" d="M122,411.8h83.9v-83.9l0,0C159.6,327.9,122,365.4,122,411.8L122,411.8z"/>
	</g>
	<g id="XMLID_583_">
		<polygon class="st0" points="244,7.6 213.5,137.2 228.8,144.9 259.2,144.9 274.5,129.6 		"/>
	</g>
	<g id="XMLID_990_">
		<polygon class="st1" points="244.7,0 228.8,129.6 221.1,144.9 249.1,144.9 244,144.9 244,22.9 		"/>
	</g>
	<g id="XMLID_974_">
		<polygon class="st2" points="282.1,411.8 205.9,411.8 221.1,137.2 266.9,137.2 282.1,190.6 		"/>
	</g>
	<g id="XMLID_558_">
		<polygon class="st3" points="244,411.8 205.9,411.8 205.9,190.6 221.1,137.2 244,137.2 		"/>
	</g>
	<g id="XMLID_599_">
		<circle class="st0" cx="244" cy="213.5" r="15.2"/>
	</g>
	<g id="XMLID_312_">
		<rect x="221.1" y="427" class="st4" width="45.8" height="15.2"/>
	</g>
	<g id="XMLID_313_">
		<rect x="228.7" y="449.9" class="st4" width="30.5" height="15.2"/>
	</g>
	<g id="XMLID_314_">
		<rect x="236.4" y="472.8" class="st4" width="15.1" height="15.2"/>
	</g>
	<g id="XMLID_244_">
		<path class="st4" d="M244,236.4c-12.6,0-22.9-10.3-22.9-22.9s10.3-22.9,22.9-22.9c12.6,0,22.9,10.3,22.9,22.9
			S256.6,236.4,244,236.4z M244,205.9c-4.2,0-7.6,3.4-7.6,7.6s3.4,7.6,7.6,7.6s7.6-3.4,7.6-7.6S248.2,205.9,244,205.9z"/>
	</g>
	<g id="XMLID_249_">
		<rect x="236.4" y="251.7" class="st5" width="15.2" height="15.2"/>
	</g>
	<g id="XMLID_250_">
		<rect x="236.4" y="282.2" class="st5" width="15.2" height="15.2"/>
	</g>
	<g id="XMLID_251_">
		<rect x="236.4" y="312.7" class="st5" width="15.2" height="15.2"/>
	</g>
	<g id="XMLID_252_">
		<rect x="236.4" y="343.2" class="st5" width="15.2" height="15.2"/>
	</g>
	<g>
		<polygon class="st4" points="244,0 244.1,0.6 244.3,0 		"/>
		<path class="st4" d="M289.8,320.6V190.7l-45.6-190l-45.9,190l0,129.9c-46.9,3.9-83.9,43.3-83.9,91.2v7.6h83.9h15.2h61h15.2h83.9
			v-7.6C373.6,363.9,336.6,324.5,289.8,320.6z M261.3,137.2h-34.4l17.3-71.5L261.3,137.2z M198.2,404.1H130
			c3.6-36,32.3-64.7,68.2-68.2V404.1z M274.5,404.1h-61v-83.9l0-127.8l9.6-39.9h41.8l9.6,39.9v127.8L274.5,404.1L274.5,404.1z
			 M289.8,404.1v-68.2c36,3.6,64.7,32.3,68.2,68.2C358,404.1,289.8,404.1,289.8,404.1z"/>
	</g>
</g>
</svg>
